<svg width="10" height="10" viewBox="0 0 10 10" fill="none" xmlns="http://www.w3.org/2000/svg">
<path d="M7.70083 9.18554C7.70083 9.572 7.38703 9.88551 7.00063 9.88574L0.700201 9.88574C0.313601 9.88574 -9.8109e-07 9.57214 -1.01489e-06 9.18554L-6.12015e-07 2.88511C0.000233004 2.49871 0.313745 2.18491 0.7002 2.18491C1.08666 2.18491 1.40017 2.49871 1.4004 2.88511L1.4004 7.49511L8.69037 0.205147C8.96374 -0.0682201 9.40723 -0.0682201 9.68059 0.205147C9.95396 0.478514 9.95396 0.922006 9.68059 1.19537L2.39063 8.48534L7.00063 8.48534C7.38703 8.48557 7.70083 8.79909 7.70083 9.18554Z" fill="white"/>
</svg>
