<svg width="24" height="24" viewBox="0 0 24 24" fill="none" xmlns="http://www.w3.org/2000/svg">
<rect width="24" height="24" rx="6" fill="#DBEAFE"/>
<path d="M19.89 11.6722C19.7471 11.4833 16.3421 7 12 7C7.65795 7 4.25287 11.4833 4.11003 11.6722C4.03853 11.7674 4 11.8822 4 12C4 12.1178 4.03853 12.2326 4.11003 12.3278C4.25287 12.5167 7.65795 17 12 17C16.3421 17 19.7471 12.5167 19.89 12.3278C19.9615 12.2326 20 12.1178 20 12C20 11.8822 19.9615 11.7674 19.89 11.6722ZM12 15.8889C8.86915 15.8889 6.14394 12.9889 5.29839 12C6.14394 11.0111 8.86915 8.11111 12 8.11111C15.1308 8.11111 17.8561 11.0111 18.7016 12C17.8561 12.9889 15.1308 15.8889 12 15.8889ZM12 9.22222C11.435 9.22222 10.8827 9.38514 10.413 9.69036C9.94318 9.99559 9.57704 10.4294 9.36083 10.937C9.14462 11.4446 9.08805 12.0031 9.19828 12.5419C9.3085 13.0808 9.58057 13.5757 9.98007 13.9642C10.3796 14.3527 10.8886 14.6172 11.4427 14.7244C11.9968 14.8316 12.5712 14.7766 13.0932 14.5663C13.6152 14.3561 14.0613 14.0001 14.3752 13.5433C14.6891 13.0864 14.8566 12.5494 14.8566 12C14.8566 11.2633 14.5556 10.5567 14.0199 10.0358C13.4842 9.51488 12.7576 9.22222 12 9.22222ZM12 13.6667C11.661 13.6667 11.3296 13.5689 11.0478 13.3858C10.7659 13.2026 10.5462 12.9423 10.4165 12.6378C10.2868 12.3333 10.2528 11.9982 10.319 11.6748C10.3851 11.3515 10.5483 11.0546 10.788 10.8215C11.0277 10.5884 11.3331 10.4297 11.6656 10.3654C11.9981 10.301 12.3427 10.3341 12.6559 10.4602C12.9691 10.5863 13.2368 10.8 13.4251 11.074C13.6134 11.3481 13.714 11.6704 13.714 12C13.714 12.442 13.5334 12.866 13.212 13.1785C12.8905 13.4911 12.4546 13.6667 12 13.6667Z" fill="#2563EB"/>
</svg>
